<?xml version="1.0" encoding="utf-8"?>
<!-- Generator: Adobe Illustrator 23.1.0, SVG Export Plug-In . SVG Version: 6.00 Build 0)  -->
<svg version="1.1" id="Layer_1" xmlns="http://www.w3.org/2000/svg" xmlns:xlink="http://www.w3.org/1999/xlink" x="0px" y="0px"
	 viewBox="0 0 37.9 30" style="enable-background:new 0 0 37.9 30;" xml:space="preserve">
<style type="text/css">
	.st0{fill:#010101;}
</style>
<path class="st0" d="M32.52,0.14H5.49C2.46,0.14,0,2.6,0,5.63v18.88C0,27.54,2.46,30,5.49,30h27.03c3.03,0,5.49-2.46,5.49-5.49V5.63
	C38,2.6,35.54,0.14,32.52,0.14z M32.52,2.77c0.22,0,0.44,0.03,0.65,0.08l-11.4,12.94c-0.7,0.79-1.71,1.25-2.76,1.25
	c-1.06,0-2.06-0.45-2.76-1.25L4.84,2.84c0.21-0.05,0.43-0.08,0.65-0.08H32.52z M35.38,24.51c0,1.58-1.28,2.86-2.86,2.86H5.49
	c-1.58,0-2.86-1.28-2.86-2.86V5.63c0-0.38,0.08-0.75,0.21-1.09l11.43,12.97c1.2,1.36,2.92,2.14,4.73,2.14
	c1.81,0,3.53-0.78,4.73-2.14L35.17,4.54c0.14,0.33,0.21,0.7,0.21,1.09V24.51z"/>
</svg>
