<?xml version="1.0" encoding="utf-8"?>
<!-- Generator: Adobe Illustrator 23.1.0, SVG Export Plug-In . SVG Version: 6.00 Build 0)  -->
<svg version="1.1" id="Layer_1" xmlns="http://www.w3.org/2000/svg" xmlns:xlink="http://www.w3.org/1999/xlink" x="0px" y="0px"
	 viewBox="0 0 29.32 37.88" style="enable-background:new 0 0 29.32 37.88;" xml:space="preserve">
<style type="text/css">
	.st0{fill:#010101;}
</style>
<g>
	<g>
		<path class="st0" d="M14.66,37.88L14.66,37.88c-0.36,0-0.71-0.15-0.96-0.42C13.14,36.86,0,22.62,0,14.83
			C0,6.74,6.58,0.16,14.66,0.16s14.66,6.58,14.66,14.66c0,7.8-13.14,22.03-13.7,22.64C15.37,37.73,15.03,37.88,14.66,37.88z
			 M14.66,2.79c-6.64,0-12.04,5.4-12.04,12.04c0,5.18,7.96,15.2,12.04,19.79C18.75,30.02,26.7,20,26.7,14.83
			C26.7,8.19,21.3,2.79,14.66,2.79z"/>
	</g>
	<g>
		<path class="st0" d="M14.66,20.79c-3.64,0-6.6-2.96-6.6-6.6c0-3.64,2.96-6.6,6.6-6.6c3.64,0,6.6,2.96,6.6,6.6
			C21.26,17.82,18.3,20.79,14.66,20.79z M14.66,10.21c-2.19,0-3.98,1.78-3.98,3.98c0,2.19,1.78,3.98,3.98,3.98
			c2.19,0,3.98-1.78,3.98-3.98C18.64,11.99,16.86,10.21,14.66,10.21z"/>
	</g>
</g>
</svg>
