<?xml version="1.0" encoding="utf-8"?>
<!-- Generator: Adobe Illustrator 23.1.0, SVG Export Plug-In . SVG Version: 6.00 Build 0)  -->
<svg version="1.1" id="Layer_1" xmlns="http://www.w3.org/2000/svg" xmlns:xlink="http://www.w3.org/1999/xlink" x="0px" y="0px"
	 viewBox="0 0 26.87 38.61" style="enable-background:new 0 0 26.87 38.61;" xml:space="preserve">
<style type="text/css">
	.st0{fill:#010101;}
</style>
<g>
	<path class="st0" d="M21.19,0H5.68C2.55,0,0,2.55,0,5.68v27.03c0,3.13,2.55,5.68,5.68,5.68h15.5c3.13,0,5.68-2.55,5.68-5.68V5.68
		C26.87,2.55,24.32,0,21.19,0z M5.68,2.62h15.5c1.69,0,3.06,1.37,3.06,3.06v21.66H2.62V5.68C2.62,4,4,2.62,5.68,2.62z M21.19,35.78
		H5.68c-1.69,0-3.06-1.37-3.06-3.06v-2.75h21.63v2.75C24.25,34.41,22.88,35.78,21.19,35.78z"/>
	<path class="st0" d="M13.08,6.4c0.58,0,1.05-0.47,1.05-1.05c0-0.58-0.47-1.05-1.05-1.05c-0.58,0-1.05,0.47-1.05,1.05
		C12.03,5.93,12.5,6.4,13.08,6.4z"/>
	<path class="st0" d="M13.08,31.6c-0.58,0-1.05,0.47-1.05,1.05c0,0.58,0.47,1.05,1.05,1.05c0.58,0,1.05-0.47,1.05-1.05
		C14.13,32.07,13.66,31.6,13.08,31.6z"/>
</g>
</svg>
