<?xml version="1.0" encoding="utf-8"?>
<!-- Generator: Adobe Illustrator 19.0.0, SVG Export Plug-In . SVG Version: 6.00 Build 0)  -->
<svg version="1.1" id="Layer_1" xmlns="http://www.w3.org/2000/svg" xmlns:xlink="http://www.w3.org/1999/xlink" x="0px" y="0px"
	 viewBox="337 321.2 1285 150.8" style="enable-background:new 337 321.2 1285 150.8;" xml:space="preserve">
<metadata><?xpacket begin="﻿" id="W5M0MpCehiHzreSzNTczkc9d"?>
<x:xmpmeta xmlns:x="adobe:ns:meta/" x:xmptk="Adobe XMP Core 5.6-c067 79.157747, 2015/03/30-23:40:42        ">
   <rdf:RDF xmlns:rdf="http://www.w3.org/1999/02/22-rdf-syntax-ns#">
      <rdf:Description rdf:about=""/>
   </rdf:RDF>
</x:xmpmeta>
                                                                                                    
                                                                                                    
                                                                                                    
                                                                                                    
                                                                                                    
                                                                                                    
                                                                                                    
                                                                                                    
                                                                                                    
                                                                                                    
                                                                                                    
                                                                                                    
                                                                                                    
                                                                                                    
                                                                                                    
                                                                                                    
                                                                                                    
                                                                                                    
                                                                                                    
                                                                                                    
                           
<?xpacket end="w"?></metadata>
<style type="text/css">
	.st0{fill:#97e5ad;}
	.st1{fill:#97e5ad;}
	.st2{fill:#97e5ad;}
	.st3{fill:#97e5ad;}
	.st4{fill:#97e5ad;}
</style>
<g>
	<path class="st0" d="M396.9,472.9l256.4-0.3c0,0-46.4,2.6-81.7-35.6h-1.5l6.1,6.7h-6.4c0,0-22.6-21.8-22.6-32.4H546
		c0,0-4.6-18.9-4.5-27.9h-0.7c0,0-4.7,31.2-15.3,43.1h-6.8c0,0,1.5-2.2,3.9-7h-1.5c0,0-6.7,13.4-15.1,21.1h-7.3l2.8-3.8h-1.6"/>
	<path class="st0" d="M1435.3,473.5l5.3-7.2v-12.1l0.7,3l1.1,0.2c0,0,1.7-1.4,2-1.8c0.3-0.4,1.9-2.6,2.9-3.3c1-0.7,2-1,2-1l0.2-4
		l0.9,1.9l-0.5,0.6v1.2c0,0,2.7,1,3.5,1.9c0.8,0.8,1.8,3.2,2.3,3.4c0.5,0.2,2.7,1.4,3,1.4s1.3-0.1,1.3-0.1l7.8,2.2l19.2,6.1v9.7
		L1435.3,473.5z"/>
	<path class="st0" d="M1346.1,472.2v-51.8h0.6v-2.5h-1.2v-5.7c0,0,1-2.9,1.9-2.8c0.8,0.1,2.3,0.1,5.2,2.8c4.4,4.1,4.4,5.2,4.4,5.2
		h2.6V414l5.4-6.7v-2.8l-2.2,1V403l3-2.1v6.1l0.8,0.3l0.1,1l0.8,0.1v65.7h-22.4L1346.1,472.2z"/>
	<path class="st0" d="M752.2,466.6v-45.3l-1.4-0.5l0.7-0.8l0.3-0.9c0,0,0.1-0.6,0.3-0.6c0.2-0.1,0.6-0.3,0.8-0.3c0.3,0,1-0.2,1-0.2
		h1.3l-0.1-1.7h0.5l0.1,1.3h0.5l0.1-1.5h0.4l0.1,1.4l1.2-0.1l-0.1-2.1c0,0,0.8-0.1,1-0.2c0.2-0.1,0.7,0.1,0.9-0.2s1.1-2.2,1.4-2.6
		c0.3-0.4,1.7-1.2,2.2-1.3c0.6-0.1,2.3,0.1,2.3,0.1l0.2-3.5h0.4l0.1-1l-0.8-0.4l0.4-0.6l0.6-0.3l0.2,4.6l0.4,0.6l0.1,0.9
		c0,0,0.3,0.4,0.5,0.4c0.2,0.1,0.8,0.8,0.8,0.8l1.6,0.1l3.3,2.5l1-0.2l0.7-0.6l0.2-0.8l0.5,0.1l0.1,1.3c0,0,0.3,0.4,0.5,0.4
		s0.6-0.1,0.6-0.1l0.1-0.8l0.6-0.1l1,0.6l0.2,0.8l1.4,0.4l0.5,2.4l1.2,0.1l-0.1,0.8l-1,0.1v50.2L752.2,466.6z"/>
	<path class="st1" d="M495,473l-0.1-4l-0.4-0.4l0.9-1.3l0.8,0.4l0.1,1.2c0,0-0.3,0.3-0.2,0.7s0.2,0.8,0.2,1.3s-0.1,2.4-0.1,2.4
		L495,473z"/>
	<polyline class="st1" points="480.9,472.9 486.6,474.6 491.2,473.8 	"/>
	<path class="st0" d="M737.5,462.8v-2.5h-0.7v-0.9h0.7v-1.1H737v-0.9h0.7v-1.1h-1v-1h0.8v-1h-0.8v-1.1h0.6v-1.1h-0.8v-0.9h0.7v-1
		h-0.9v-0.7h0.7v-1.3h-4.4l-1.7,1.7H718v-7.2l0.4-0.9l-0.5-0.4h-1.7c0,0-1.3-1.1-1.7-1.2c-0.3-0.1-1-0.5-1-0.5l-0.4-3l-0.3,3
		c0,0-1.9,0.9-2.3,1.5c-0.3,0.5-0.5,2.2-0.5,2.2h-4.3l-8.4-3.2l-2.1-0.5l-1.6-0.4l-2.3-1.6l-2-0.7l-0.4-0.2l-0.5-4.3l-0.5,4.2
		l-1.5,0.7l-1.1,0.7l-0.5,0.2c0,0-0.8-0.5-1-0.6c-0.2-0.1-0.9-0.4-0.9-0.4l-0.5-0.1l-2.2,0.2l-0.9-0.6l-1.6-0.5l-1.1,0.5l-1.2,0.1
		l-0.1-0.3l0.1-1.2l-1.8-1.1l-0.7-0.8l-0.7-0.4l-0.2-0.4l-0.5-3.3l-0.4,3.6l-1.7,0.3c0,0-0.1,1.1-0.3,1.1s-1.6-0.1-1.6-0.1l-3.4-0.6
		l-6.4,14.2l-2.3,9.3l24.5,7.6l27,0.5l8.6,0.5l21.9,0.5L737.5,462.8z"/>
	<path class="st0" d="M901.6,451.9v-33.5c0,0,1.6-2.5,1.5-2.8s-0.3-1.1-0.3-1.1l0.9,0.1l2.4-2l-0.3-0.9l-0.1-1.1l1.7-1
		c0,0,0.4-0.1,0.7-0.2c0.3-0.1,0.9-0.3,0.9-0.3l0.1-0.7l-0.5-0.5l0.4-0.5l0.6-0.5l0.4,0.3l-0.1,0.6c0,0-0.3,0.5-0.3,0.7
		s0.1,0.7,0.1,0.7l1.2,0.4l0.7,0.7c0,0,0.3,0.7,0.6,0.9c0.3,0.1,1.7,0.3,1.7,0.3l1.6,0.5l0.4,0.7l0.7,0.1c0,0,0.9-1.5,1.6-1.3
		s1,0.9,1,0.9s0.1,0.5,0.1,0.8v4.4c0,0,0.8,0.9,0.8,1.3c0,0.4-0.9,1.1-0.9,1.1v46.8l-15.6-9.9L901.6,451.9z"/>
	<polygon class="st0" points="891.8,446.1 891.8,415.5 890.8,415.2 890.8,414 886,410.7 884.9,410.7 884.9,411.3 884,411.3 
		884,408.5 883,408.5 883,411.5 882,411.5 882,410.5 875.9,414.2 875.9,415.2 874.7,415.5 874.7,471.3 886.9,471.1 	"/>
	<path class="st0" d="M985.6,461.6v-18.5h-3.4v-1.5H969l-0.1-1.1h-0.8l-0.1,1.2l-1.2,0.1V440h-4.7v-0.7l0.2-0.9c0,0,0.7-0.1,0.8-0.8
		c0.1-0.7-0.9-0.9-0.9-0.9s-0.2-3.8-2.2-6.6c-2-2.8-4.5-3.4-4.5-3.4v-7.5h-0.9l-0.1,7.6c0,0-2.7,1.1-4.3,4.4
		c-1.7,3.3-1.5,5.1-1.5,5.1s-1.3,0.5-1.3,1.1c0,0.7,1.3,1.7,1.3,1.7l-0.3,0.5l-1.5,1.7l-0.8,1h-13.5V469h56L985.6,461.6z"/>
	<polygon class="st0" points="1021.9,458.9 1021.9,444.2 1020.3,442.1 1022,441.4 1022.2,440.6 1023.7,440.2 1024.1,439.1 
		1025.9,438.8 1027.2,436.3 1027.8,436.3 1029.7,433.5 1029.9,425.5 1030.6,425.5 1030.7,426.7 1032,426.7 1031.8,427.6 
		1031.3,428.6 1030.7,428.9 1030.5,430.8 1030.7,433.7 1031.9,434.7 1031.8,436.1 1033.1,436.6 1033.6,437.8 1035.9,438.4 
		1037.7,440.1 1038.6,441.3 1038.8,442 1039.3,445.3 1039.3,475.2 1025.6,474.2 1021.7,458.8 	"/>
	<path class="st0" d="M1218.7,458.5l-0.7-41.8l-0.9-0.9l-2.1-0.7l-0.1-1.7c0,0,0.3-0.3-0.9-0.3s-3.7,0.3-3.7,0.3l-5.4,1.5l-0.7,1.1
		l-0.3,1.3l-1.6,0.7l-0.4,0.7l0.5,53.4l13.1,1.3L1218.7,458.5z"/>
	<polygon class="st0" points="1180.1,460.4 1179.9,434.9 1180.6,433.7 1179.9,432.5 1179.9,429.5 1179.6,427.7 1179.6,426.4 
		1178.7,425.7 1177.6,425.6 1176.3,426.1 1175.1,426.3 1173.5,426 1172.3,425.2 1171.8,424.6 1170.7,423.6 1170.1,423 1170.1,420.5 
		1169.4,420.6 1169.3,423.2 1168.5,423.9 1167,424 1166.6,425.3 1166.2,427.1 1161.5,432.3 1162.4,433.6 1162.1,457.8 	"/>
	<path class="st0" d="M1538.9,465.2v-27.6l0.8-0.5l0.1-1.4h0.6l0.1-0.8l-4.4-0.3l0.1-1l0.5-0.6l0.1-0.6l-1.7-0.2l-1.3-1.5l-1-0.5
		l-0.3,0.6l-0.8,1l-1.5,0.9l-0.9,0.1v0.7l0.6,0.8v0.3l-10.8,0.7c0,0,0.1-0.4,0.2-0.7c0.1-0.3,0.3-1.6,0.3-1.6l-5.8-0.4l-1.8-2.5
		v-1.2l-1.1-0.2l-0.8-1.1l-0.9-0.5l-0.6-1.3v-5.5h-0.5v0.7l-3.1,1.3l0.4,2l2.7-0.8v2.3c0,0-0.3,1.2-0.5,1.2
		c-0.2,0.1-1.1,0.1-1.1,0.1l-0.3,1.3l-1.3,0.5l-0.6,1.7l-1.3,2l-6.1,0.3l-0.1,2l-8.8-1.3l0.1-1l0.3-0.1l0.1-0.5l-1.3-0.1l-1.8-2
		l-0.1-3.7h-0.3v3.6l-2.2,2h-1.9l0.6,0.9l0.4,0.8v0.6h-4.6v0.7l0.5,0.2l0.1,1.2l0.7,0.3v12.8c0,0-1.1-0.4-1.6,0.6
		c-0.4,1-0.6,2.4-0.6,2.4l-0.6,1.8l-0.7,1.3l-0.3,10.8l-0.5-0.5l-0.2-0.6l-0.2-0.3l-0.1-0.6h-0.4l-0.1,0.8l-0.5,0.4l-0.7-0.3
		l-0.2-1.1h-0.4c0,0-0.3,0.4-0.3,0.7c0,0.3,0,1.7,0,1.7l-0.4,0.3l-0.3,0.3v1.2l-0.5,1.4l-0.2,0.5l-0.3,1.1v2.1h68.8L1538.9,465.2z"
		/>
	<polygon class="st1" points="1478.6,453.8 1477.3,455.3 1477.3,463.9 1478.2,463.9 1478.7,463.6 	"/>
	<path class="st1" d="M606.1,471.9l-1.5-0.6l-0.8-0.6l-0.7-0.1L602,471c0,0,0.3,0.6-0.3,0.4s-1.7-1.3-1.7-1.3h-0.8l-1.1-0.1l0.6-8.3
		l1-0.1l-0.2-1l-1.2-1.9l-0.3,1.2l0.1,1.4l-0.4,0.4l-0.4,8.6l0.2,0.9l-0.5,0.4l-0.8-0.1l-0.2-0.6v-9.4l1.1-0.4l-0.3-1.2l-0.7-1.1
		l-0.6,0.1v11.8l-0.6,0.1l-0.5-0.6l-0.4-0.5l-0.5-0.5l-0.5-0.3l-0.6-0.1c0,0-0.1,0.2-0.5,0.3c-0.4,0.2-3.4,1.3-3.4,1.3l0.1,2.9
		l18.5,0.2L606.1,471.9z"/>
	<g>
		<path class="st2" d="M868.5,429.2l-2.9,0.2c0,0,1.2-1.5,1.2-2.1c0-0.6-1-2.2-1-2.2l-1-0.9l-6.8-0.1c0,0,0.3-1.5,0-2.1
			c-0.3-0.6-1-1.6-1-1.6l-0.3-3.4c0,0-3.4-2.8-4.3-3.1c-0.9-0.3-1.9-0.3-1.9-0.3l-3.1-2.5l0.4-5.8l-1.3-1l-1-1.2v-1.2l0.9-0.9
			l-0.8-0.8v-9.8l0.6-1.7l-0.8-0.9v-3.5h-0.9v16.1l-0.4,0.8l0.6,1v1.2l-0.7,0.3l-0.4,0.9l-0.8,1l0.2,6.1l-2.8,2.9l-2,0.2
			c0,0-3,2.1-3.3,2.8c-0.3,0.7-0.5,1.8-0.5,2.5c0,0.6,0.2,1.1,0.2,1.4s-1,1.4-1.1,1.8c-0.1,0.4-0.1,1.8-0.3,1.9l-2,1l-4.4,0.3
			l-1.3,2l-0.1,2.8h2v0.7h-3.5L794,458.9v-6.2h-4.1v-4.3l2.5-1.2l-0.1-1.3l-2.4-0.1v-0.7l-2-0.1l-0.7-0.7l-0.1-0.8l0.4-0.5l-0.8-0.7
			l0.1-1.8c0,0-0.9-1.9-1.5-2.5c-0.7-0.6-1.2-1-1.2-1v-3.1H783v3.2c0,0-1.8,1.1-1.9,1.8c-0.1,0.7-0.5,1.5-0.5,1.5l-0.7,0.1l0.1,1.6
			v0.7l-0.8,0.2l1.1,0.7L780,445l-1.5,0.7l-0.5,0.4l-0.8,0.4l-0.7,0.7l-1.6,0.1l1.3,1.6l1.3,0.2v25.8h139.8l-0.7-10.7L868.5,429.2z"
			/>
		<path class="st2" d="M518.6,443.3l0.9-1.7l-0.2-4.5l0.4-1.1l-0.8-0.9l-0.4-0.8c0,0,0.6-1.8,0.5-2.1c-0.1-0.4-4-2.1-4.8-2.4
			s-2.8-0.8-2.8-0.8v-2.7l-0.9-2.7l-2-0.4v-2.8h-1v2.9h-1.9v2.2l-0.9,0.4c0,0-0.6,0.4-0.5,0.8c0.1,0.4,0.2,1.5,0.2,1.5v1.1l-1.9,0.6
			c0,0-5.9,1-6.7,1.7s-2,1.1-1.8,1.8c0.2,0.7,1,1.2,1,1.2l-0.4,1.2l-1,0.7l0.6,1.9l0.1,2.5l0.5,0.3v27.9l-8.4,4.1l4.7,0.7l31.2,0.2
			v-4.2l-3.2-1.3L518.6,443.3z"/>
		<polygon class="st2" points="1370.7,469 1370.7,468.3 1370.1,467.9 1369.9,466.9 1369.5,467.3 1368.2,468 1366,468.7 1366,464.7 
			1360.5,464.7 1360.5,465.5 1360.9,465.9 1361.3,466.2 1361.4,468.7 1360.1,468.8 1360.1,474.5 1371.3,474 1371.5,472.7 
			1371.4,470.1 		"/>
		<path class="st2" d="M1554.9,438.1c0,0-2.8-1.5-5.2-1.8c-2.4-0.3-3.5-0.3-3.5-0.3l-0.8,0.7l-0.4,28.9l11.5,1.5l0.3-27.1l-1.8-0.7
			L1554.9,438.1z"/>
		<path class="st2" d="M1439.6,471.1l-1-0.3v-0.5l0.1-0.8c0,0,0.3-0.2,0.4-0.5c0.1-0.2,0-1,0-1h-0.4l-0.5,0.2l-0.6,0.4l-0.2,0.5
			l-0.2,1.6l-0.1,0.3l-0.7-0.3l-0.1-1.3l0.1-0.5c0,0,0.3-0.1,0.3-0.4c0.1-0.3,0.1-0.5,0.1-0.5l-0.2-0.3l-0.2-0.7l-0.2-0.3l-0.5-0.1
			l-0.8,0.1l-0.4,0.3l-0.3,0.3l-0.1,0.5l0.3,0.4l0.3,0.4l0.2,0.4l0.1,0.7v0.3l-0.5,0.1l-0.3-0.1l-0.4-0.5l-0.2-0.6l-0.5-0.3
			l-0.2-0.4l-0.2-0.2v-0.5l-0.4-0.5c0,0-0.2-0.2-0.1-0.4c0.2-0.2,0.6-0.5,0.6-0.5s0.1-0.2-0.1-0.4c-0.2-0.2-0.5-0.5-0.5-0.5
			l-0.3-0.3l-0.4,0.1l-0.7,0.4l-0.3,0.4v0.8l-0.4,0.7l0.7,0.4l0.3,0.4l-0.2,0.7l-0.3,0.3l-0.5,0.9l-0.7-0.9l-0.4-1l-0.4-0.4
			l-0.2-0.4l0.2-0.2l-0.6-0.1l-1.3-0.2c0,0-0.2-0.5,0-1c0.2-0.4,0.4-1.1,0.4-1.1l0.3-0.6l-0.5-0.4l-0.2-0.4h-0.5l-0.4,0.5h-0.8
			l-0.2,0.8l0.5,1.2l0.4,1l-1,0.4c0,0-1,0.3-1,0.5s-0.3,0.9-0.3,0.9l-0.7,0.1l-0.1-1.3l-0.2-0.8l-0.7-0.4l-0.8-0.6v-0.9l-1.1-0.9
			l-0.7-0.1l-0.1-2.2l0.8-0.3c0,0-0.1-0.4-0.2-0.7c-0.2-0.2-1-0.8-1-0.8l-0.4,0.1l-0.8,0.4l-0.4,0.2l-0.3,0.7l0.5,0.6
			c0,0,0.3,0.6,0.3,0.8c0,0.2,0,1.4,0,1.4s-1,0.5-1.3,0.5h-0.8c0,0,0.2,0.7,0,0.9c-0.2,0.2-0.7,0.6-0.7,0.6s-0.2,0.4-0.2,0.7
			c0,0.2-0.2,1.6-0.2,1.6l0.7,0.2h1.5h1v5h2.1l0.1-4.5c0,0,0.5,0.2,0.8,0.2c0.2,0,1.4,0.5,1.4,0.5l0.4,0.5l-0.1,1.4l-0.1,1.7h18.8
			l-0.6-1.6L1439.6,471.1z"/>
		<polygon class="st2" points="1582.1,444.3 1580.3,444.3 1578,442.5 1572.7,442.6 1569.9,441.2 1568.5,441.5 1568.8,474.5 
			1582.6,473.6 		"/>
		<polygon class="st2" points="1440.9,473.3 1440.9,473.3 1440.9,473.2 1440.9,473.2 		"/>
		<path class="st2" d="M1074.6,442.5l-5.7-42.5l-3.1-2.4l0.1-1.6l-1.1-0.2l-0.1-1.6l-2.1-1.9l-0.6-0.8l0.1-1.1l0.3-1.7v-0.9
			l-0.5-0.9l-0.4-0.6l1.9-1.2l0.1-1.2l1.4-0.7l0.3-1.7l0.9-0.7l0.4-0.9l-0.6-1l-0.7-0.2l-1.7,1.2l-0.9,0.4l-1-0.1l-1.7-1.2l-1.3,1.2
			l-0.8,0.5v1.2l0.3,0.9l-0.6,0.4h-0.9l0.5,1.1l1,1.1l0.7,0.9l-0.4,0.9l-0.4,0.8l1.6,2.3l-2.9,7.2c0,0-2.3,0.6-2.7,1.3
			c-0.5,0.7-0.6,1.1-0.6,1.1l0.3,2.1l0.6,0.7l0.4,1l-0.5,0.8l-0.6,0.6l-0.1,0.9v1.1l-0.6,1l0.4,1.5l0.4,0.6l0.7,0.9l-0.6,9.8
			l-1.4,1.5l-0.1,9.6c0,0,0.8,1.4,0.6,2.3c-0.2,1-1.1,1.7-1.1,1.7l-0.9,1.2l0.1,1.5v1l-0.1,2l0.4,1c0,0,1.5,1,1.5,1.6
			c0,0.6-5.2,5.2-5.2,5.2l-0.2,5.7l-10.9,14.9l-0.2,6.2l4.3-1.4l13-20.4l-7,21.4l8.6-0.6l6-23.2l11.2,0.3l20,17.7l2.6-4.9l-17.7-18
			L1074.6,442.5z M1057.7,420.3h-1.1v-9.2l0.5-0.7h0.6V420.3z M1062.4,420.1l-1,0.2l-0.6-0.4l0.1-9.1l0.9-0.5l0.6,0.4V420.1z
			 M1067.7,427.3v0.8l-1.8-0.1v-0.7H1067.7z M1066.1,426.6l0.1-0.9h1.3v0.8L1066.1,426.6z M1067.5,424.5h-1l-1.2-0.5v-0.6l0,0l0,0
			l0,0l2.3,0.1L1067.5,424.5z M1065.4,422.4l0.1-0.7h1.9v0.8L1065.4,422.4z M1065.1,412.2h0.7l0.1,1.3l1.7,2.1l-0.1,4.6l-2.4,0.1
			L1065.1,412.2L1065.1,412.2z M1067.6,429.3l-0.1,0.6l-2.3,0.6l-0.1-1.1C1065.4,429.4,1067.6,429.3,1067.6,429.3z M1068,434.8h-2.6
			l0.2-1l2.7-0.3L1068,434.8z M1068.1,432l-1.1,0.5l-2.1,0.1l0.3-1l3.2-0.9L1068.1,432z"/>
		<polygon class="st2" points="1408.2,409.7 1406.9,407.3 1402.3,405.2 1400.2,404.6 1399.3,403.4 1398,402.8 1397.6,400.3 
			1396.9,400.3 1396.8,401.3 1396.8,402.7 1395.6,403.3 1394.4,403.9 1394.1,405.2 1393.7,407.1 1392.3,408.4 1392.3,402.5 
			1390.1,404.1 1391.3,405.1 1391.3,409.1 1390.6,410.4 1389.4,411.9 1389.4,413.8 1389.4,435.4 1388.2,436.6 1388.2,470.1 
			1387.2,470.1 1387.2,473.4 1409.8,473.2 1409.8,436.2 1408.2,435.3 		"/>
		<path class="st2" d="M1212.7,461c0,0,0.7-0.2,0.7-1c0-0.7-1.1-1.1-1.1-1.1s0.5-0.9,0.5-1.3c0-0.4,0.1-3.6,0.1-3.6
			s-0.8-0.6-0.8-1.3c0-0.7,0.3-2,0.3-2l-1.2-1.4l-1.8-1.7l-0.3-1l0.6-0.5v-0.8l-1.1-0.7l-0.7-0.5v-2.9h-0.9v3.1c0,0-1.4,1.4-1.3,2.1
			s0.7,0.9,0.7,0.9l-0.1,0.9l-2.3,2.9h-2.4v19.6l24.7,1.1v-7.6l-13.7-1.7L1212.7,461z"/>
	</g>
	<g>
		<polygon class="st3" points="425.7,463.2 425.7,465.3 426.4,465.7 		"/>
		<polygon class="st3" points="426.8,466 426.4,465.7 426.7,467 		"/>
		<path class="st3" d="M1117,438.1c-0.2-0.1-0.6-0.3-1-0.5l0.8,0.4C1116.8,438,1116.9,438.1,1117,438.1z"/>
		<path class="st3" d="M1101.7,439.4l4.8,4.7v7.4l8.3,0.2l6.3,5.6l5.7-5.9h7.8l-0.1-7.2l4.9-5l0,0l-4.8-4.7V427h-8.6l-5.6-5.4
			l-5.1,5.4h-8.8c-0.1,0.1-0.1,0.1-0.2,0.2l0.1,7.4L1101.7,439.4z M1125.9,449.9l-3.1-6.5v-0.5l4,6L1125.9,449.9z M1127.5,448
			l-4.4-5.4l5.6,4.3L1127.5,448z M1129.4,446.3l-3.6-3.1c0,0-1.2-0.8-1.7-1.3s0-0.7,0-0.7l6.7,3.6L1129.4,446.3z M1132,443.7
			l-7.3-3.1v-1h7.3V443.7z M1132,438.9h-7.3v-0.8l7.3-3.4V438.9z M1130.8,434.6l-6.7,3.4v-0.8l5.4-4.8L1130.8,434.6z M1128.7,432.5
			l-5.6,4.3l4.6-5.9L1128.7,432.5z M1126.8,430.2l-4,5.7l3-7L1126.8,430.2z M1121.5,428.9L1121.5,428.9h3.3l-2.9,7h-0.4V428.9z
			 M1121.4,442.9h0.4l2.9,7h-3.3V442.9z M1108.6,443.1v-3.5h8.7c0,0,0.1,0.7-1.6,1.5l-6,2.9C1109.7,444,1108.5,444.9,1108.6,443.1z
			 M1111.2,446c-1.1-0.6-1.1-1.4-1.1-1.4l0.6-0.4l6.1-3c0,0,1.7-0.3,0,1.1l-4.6,3.7C1112.2,446,1112.3,446.6,1111.2,446z
			 M1112.9,447l5.2-5.1l0.4,0.7l-4.7,5.4L1112.9,447z M1114.5,449l4.2-6.1h0.4l-3.2,7L1114.5,449z M1120.4,449.9h-3.6l3-7h0.7
			L1120.4,449.9z M1120,428.9l0.4,6.4l-0.5,0.6l-3.1-7H1120z M1116,428.9l3.1,7h-0.5l-4.1-6L1116,428.9z M1112.9,431.4
			c0,0,0.5-1,0.9-0.4l4.3,5.2c0,0,0.1,0.9-0.7,0c-0.8-0.9-4-3.7-4-3.7S1112,432.2,1112.9,431.4z M1108.6,435.6
			c0.1-1.2,1.3-0.8,1.3-0.8s3.9,1.8,6,2.8l-5-2.9c0,0-1.8-0.5,0-1.8c0,0,1-0.8,1.4,0l5,3.9c0,0,0.5,1.4-0.3,1.3
			c0.1,0.1,0.2,0.1,0.2,0.1c0.4,0.3,0,0.7,0,0.7h-8.6C1108.6,438.9,1108.5,436.7,1108.6,435.6z"/>
		<path class="st3" d="M1573.7,472.6l0.2-0.9c0.4-1.2,0-3.2,0-3.2l-3.3-0.5v-1.3c0-0.7-6.1-2.5-6.1-2.5v-0.5l1.6,0.2v-1.1l-1.3-0.6
			h-0.9v1.9l-2.4-0.4c-36.3-5.5-41.7-4.4-41.7-4.4l-1.2,0.2l-0.1-0.4l-1.5-0.1l0.1-2.1l2.5,0.5l0.2-1.6l-2.3-0.9h-0.7v4l-0.3,0.3
			l-0.5,0.2l-0.5-0.6l-0.4,0.1l-0.7,0.3v0.7l0.8,0.4l0.3,0.6l-0.3,0.4l-0.3,0.7l-0.9,0.1l-0.2,0.8l-5.7,0.6v-3.6h1.3
			c1.8-1-0.3-1.5-0.3-1.5c-0.5-0.2-5.5,0.1-5.5,0.1c-21.8,3.7-26.2,6.9-26.2,6.9v0.9l-0.3,0.2c-4,2.9-6.2,5.8-6.2,5.8l-62.5-0.1
			l-1.5-17.2l5.7-4v-4.1l-5.7,0.1v1.5l-0.3,0.5l-1.8,0.2c-2.6,2.9-12,4.3-12,4.3c-11.8,2-19-5.5-19-5.5l-0.2-1h-4.9l-0.5,3.8
			c0,0.7,6,4.5,6,4.5l-1.8,16.7H1360l-4.4-4.3v-0.9l0.4-0.1v-0.4l-3.5-0.1l-3.3-3.3v-0.4l0.4-0.1v-0.6l-4.3,0.1v-0.3h-3.2l-0.2-4.6
			l0.8-1.2v-0.6l-4.3,0.1l0.1-0.8h-0.7l-0.1-5.8h0.6V440h-0.6v-2.9h0.6l0.1-8.3h-0.8V426h0.8l-0.1-8.3h-0.7v-2.5l0.5-0.1l0.2-8.4
			h-0.8l0.1-2.3l0.8-0.1l-0.2-8.5h-0.6l0.1-4.6h0.9v-1h0.9l0.1-3.9h0.3v-1h-0.7l-0.1-1.3l0.3-0.1v-1h-0.8v1l-1,0.1v-4l-1.5-2.3v-9.9
			l-1.1-2.1l-0.1-10.3l-0.9-1.4l0.1-9.5c0.8-0.2,1.1-1,1.1-1c0.3-2.2-1.8-2.2-1.8-2.2h-0.7l-0.4,0.1l-0.3-0.6l-0.5,1l-0.6,0.1
			l0.4,0.4l0.3,0.9c-0.1,1.3,1.1,1.2,1.1,1.2v9.7l-0.7,1.3v10.4l-1.1,1.6v11.1l-1.7,2v4.2h-1.2l-0.1-0.7l-0.4,0.1l0.1,1.8l-0.4,0.2
			l0.3,4.8h1v0.7l1,0.2v4.6h-0.7l-0.2,8.3l0.9,0.2v2.4h-0.7l-0.1,8.4l0.8-0.1v2.4l-0.7,0.1l-0.2,8.5h1v2.5h-0.9v8.7l0.9-0.1v2.7
			l-0.8,0.1l0.1,8.5l0.7-0.1v5.7l-0.7,0.1v1h-4.4v0.5l0.9,0.7v4.7l-3.2,0.1v0.7l-4.6,0.1v0.5l0.7,0.1v0.6l-3.4,3.1h-3.6l0.1,0.5
			l0.5,0.2l0.1,1.1l-1.5,1.3l0.2-12.1l1.2-1.5l-1.1-2.2v-2.3l0.7-0.4l0.7-0.1l0.2-0.6l-0.4-0.4l0.3-0.5c3-2.3,2.7-4.1,2.7-4.1
			c-1.7-3.4-4.6,2.7-4.6,2.7l-0.4,1.3l-0.6-0.1l0.1-0.7l1.8-3.2c0.4-0.4,1.5-1.6,1.5-1.6c-0.5-1.9-1.8,0.8-1.8,0.8l-2.1,3.5
			l-0.5,1.1h-0.4l0.1-1.5l2.3-4c1-1.6-0.8-0.1-0.8-0.1l-2.6,3.9l-0.3,1.7l-0.7,0.1v-1c0.2-0.3,2.7-5,2.7-5c0.7-1.3-0.5-0.7-0.5-0.7
			l-2.8,4l-0.4,2.7l-0.7,0.1l0.2-2.7l2.1-3.6c1.7-1.6-0.7-1.4-0.7-1.4l-2.9,4.6l-0.1,2.7h-0.9l-0.1-2.2l0.4-0.5
			c0-0.3,2.1-4.7,2.1-4.7c0.4-0.6-1.7-0.6-1.7-0.6l-1.5,4.1l-0.2,1.3l-1.2,2.4c-0.4,0.4-0.7-0.4-0.7-0.4l0.5-3.2l1.6-4.1
			c1.7-1.8-1.1-1.4-1.1-1.4c-0.7,0-2.7,5.5-2.7,5.5l-0.4,3.2h-0.7l0.1-2.6l2.1-6.1l-2.4-0.1l-1.9,4.4l-0.1,3.7c0,0-0.4,0.3-0.9,0.1
			c-0.5-0.2,0.3-4.1,0.2-4.6c-0.1-0.5,1.3-2.6,1.3-2.6l0.7-0.7v-0.7l-1-0.2l-0.6-0.6l-1.5,0.8l-1.3,7.1c-0.2,1.5-1.3,1.6-1.3,1.6
			c-0.6-1.3,1.8-8.7,1.8-8.7c-1.6-2.4-3.3,0.1-3.3,0.1s-1.1,7.3-1,8s-1,0.3-1,0.3l1-8.8l-0.8-0.3l-0.4-0.8h-0.5v0.4l-0.9,0.1v-1.4
			l-0.4-0.2c0,0-0.7-1-1-1s-0.7,0.4-0.7,0.4l-0.4,0.3l-0.4,0.1l-0.5-1.1h-0.6l-0.4,0.8l-0.9-0.1c0,0,0.5-0.1,0-0.5
			c-0.5-0.4-1.8,1-1.8,1h-0.5l-0.4-1l0.1-2.3l0.4-0.2c0.4-0.1,0.6-1.5,0.6-1.5l0.2-1.5c-0.5-0.5-0.1-1.4-0.1-1.4v-8l0.7-0.1v-8.5
			l-1.5-0.1v-1.3h-0.7v-4.5l-0.7-0.1v6.1h-0.9l-0.1-0.9h-0.8l0.1,7.8l0.7,0.1l-0.3,1.1l-0.1,10.3c0.1,2,1.5,2.7,1.5,2.7v1.3
			l-0.4,0.2v1.1v0.7h-0.5v-0.4l-0.4-0.4l-0.4-0.8l-1-0.2l-0.4,0.3l-0.5,0.5h-0.5l-0.5-0.4h-0.7v0.8h-0.7v-0.5l-0.9,0.1v0.7l-0.7,0.6
			l-0.4,1.7l-0.6,0.2l0.4,1.3l0.1,0.7l0.5,0.2v6.3l-0.7,0.1l-0.7-5.8l-0.4-2.6l-0.7-0.3l-0.6-0.6h-0.4l-0.4,0.4l-0.4,0.2
			c-0.5,0.1,0.4,8.8,0.4,8.8h-0.7l-0.5-3.1l-1-5l-0.7-0.1l-0.5-0.4c-3.8-0.8,0,6,0,6v2.7l-1,0.1v-2.7l-1.3-3.7l-1.3-1.8
			c-2.9-1-0.6,2.2-0.6,2.2c0.4,0.4,1,4.1,1,4.1v1.7l-0.8,0.1v-2.5l-1.5-4.5c-4.1-3.2-2.3,0.9-2.3,0.9c0.5,0.4,1.6,4.7,1.6,4.7v1.8
			l-0.7,0.1c-0.7-4.7-2.5-7.7-2.5-7.7c-2.7-1.1-1.5,1.2-1.5,1.2c0.5,0.2,2,5.7,2,5.7v1.3l-1-0.1v-2.4c0.1-0.8-2.4-5.1-2.4-5.1
			c-2.7-1.5-0.9,1-0.9,1c0.3,0.4,2.4,6.8,2.4,6.8l-0.6,0.4c-0.7-0.2-2.4-5.8-2.4-5.8l-0.6-1.8l-0.9-0.1l-0.4-0.5c-2.4,0,1,3.2,1,3.2
			c0.5,0.5,1.6,5,1.6,5c0.7,0.9,0,1,0,1c-0.5,0.1-3.5-6.9-3.5-6.9l-1.1-0.6c-0.4-0.5-0.8,0.2-0.8,0.2l-0.7,0.2l-0.3-0.4l-0.6,0.1
			l-0.1,0.7h-0.6v-0.4h-0.4l-0.2,0.7c-2.8,2.2-0.7,3.9-0.4,4c0.3,0.1,2.7,4.4,2.7,4.4v1.6l0.9,0.2l-0.3,0.5c0,0,0.3-0.5-0.7,0.7
			s0,2,0,2l-0.1,2.4l0.9-0.1c0.3-0.7,0.7,0.1,0.7,0.1l-0.6,5.9l0.6,0.3v1l-0.4,0.1v5.5h-10.9l-1-1.4l-1.8-0.2l-0.4-0.5l-1.9-0.2
			l-0.4-0.3c-1-2.3-1.8,0.2-1.8,0.2l-3.8,0.1c-8.1-2.9-23.6-16.3-23.6-16.3l-4.4-0.2l-1.8-1.6h-0.9l0.2-8.4l1.7-0.2l-1.8-3h-0.7
			l-0.1,2.5l0.1,0.1h-0.1l-0.3,10.6h-0.9v-0.5h-0.4l0.4-10l1.2-0.1v-0.1l-1.6-3h-1v12.5l-2.1-2.4l-21.1,0.5v2.7l-5.9,19.4l-19.2-17
			c6.7-6.9,6-17.3,6-17.3c-1.8-19.9-19.4-22.2-19.4-22.2v-0.7l-1.9-0.6c-1.6-1.2-1.8-4.3-1.8-4.3v-2.2l-0.4-0.1l-0.2-0.6l0.5-0.1
			v-1.1l-0.5,0.1v-4.1v-0.7v-1.6l-1,0.1v0.7l0.4,0.3v0.6l-0.5,0.2l0.1,0.5l0.4,0.1l-0.4,4.1l-0.4,0.1v0.8h0.4v0.7l-0.4,0.2v2
			c-0.3,0.1-0.9,3.5-0.9,3.5c0,1-2.9,1.3-2.9,1.3v0.7c-13.4,1.6-17.9,15.3-17.9,15.3c-4.6,17,4.9,24.3,4.9,24.3l-7.5,7.3h-1v-3.5
			l-1,0.1v1.5l-0.6,0.8v1.3l-1,1.1l-1.1-0.1v-0.8l-0.7-0.1v-2.5h-0.4v1.8l-0.4,1.3l-1.2,1h-0.7v-3.6l-0.7,0.2v0.7l-0.5,0.6v1.6v0.7
			l-0.6,0.7h-1l-0.5-0.3v-3l-0.4,0.1v1.7l-1,0.5v1.6l-1.1-0.2v-1.6v-1.3h-0.7l-0.1,1.3l-0.7,0.1l-0.1,1.8l-2.2,0.1l0.1,1.2l1.1,0.1
			l0.2,1.2l2.3,1v0.8l-0.5,0.2v1.4h-5.2v-0.7l-0.7,0.1v-2.4l-1,0.1v1.6l-1.4,0.1v1.2h-4.2v-1.3l-0.9,0.1v1.2h-1.6v-1.7l-0.6,0.1v0.8
			l-1.6,0.2v0.7h-22.7v-10l-1-0.1v-1h-0.8v-0.9h-0.8v-0.8l-1-0.1v-0.9h-1.1v-1.1h-1.1v-0.7h-0.9v-1h-1.2v-0.9l-0.6-0.1v-0.9h-1.1
			v-0.9h-1v-1h-0.9v-0.8l-0.8-0.1v-0.7l-1-0.1v-0.7h-1.9l-2.7-2.4v-0.8H1011v-1l-1.6-0.1v-1.1l-0.9-0.1v-1l-1.3-0.1l-2.5-3.3
			l-2.7-0.1l-0.1-9.7l6.6-6.9l-7.1-7.2v-9.4h-9.9l-2.4-2.5l-0.3-22.1c0.2-3.5,3-10.5,3-10.5l1.6-1.3l0.2-2.4l0.5-0.1v-0.7l-0.8-0.1
			v-1h-1.2v-0.4l-1-0.2v-0.7h-1.3c-0.4-0.3-3.2-2.6-3.2-2.6l0.1-1.7c1.3-1-0.7-1.6-0.7-1.6v-1.2c0.7-0.7,0-2.1,0-2.1l-0.5-9.2
			c1.1-1-0.1-1.7-0.1-1.7l0.1-4.6c1.1-0.8-0.4-1.6-0.4-1.6v-2.7h-1.4v2.7c-0.9,0.4-0.6,1.4-0.6,1.4l0.4,0.4v4.5H983l-0.1,1l0.5,0.6
			l-0.2,9.5l-0.4,0.1v1.4l0.5,0.6v1c-1.7,0.3-1.1,1.1-1.1,1.1l0.4,0.9v1.1l-3.3,2.5h-1.6l-0.1,0.6h-0.3l-0.3,0.6h-0.9l-0.2,1.2
			l-0.6,0.2v0.5l0.3,0.5c-0.2,3.3,1.7,3.2,1.7,3.2c3.1,5.6,3,11.1,3,11.1v21.3l-2.3,2.6h-10.2v9.5l-7.1,7.1l6.5,7.1v9.5l-2.6-0.1
			l-2.7,3.4l-1,0.1v1.1l-1.4,0.1v1.4l-1.5,0.9h-11v0.8l-2.7,2.3l-2.3,0.2v0.8h-1v0.8l-0.8,0.2v0.8h-0.7v0.7l-1.2,0.3v0.8l-1,0.1v0.9
			l-0.8,0.1v0.8l-0.9,0.2v0.9l-1.3,0.2v0.6l-0.8,0.1v0.7l-1.2,0.1v1.2l-1,0.1v0.7l-0.9,0.1v0.9l-0.8,0.2v0.9l-20.1,0.2v-2.3l2.7-0.1
			v-1c-0.6-0.5-15.2-1.8-15.2-1.8c-1.3,2.6-3.1,2-3.1,2l-1.8-1.2v-5l-1.7-0.1l-0.4-2.9c0.8,0,0-1.1,0-1.1v-5l-0.8,0.1v5
			c-0.8,0.6,0,1,0,1v3.1h-2.1v2.9c-22.1-1.9-50.2,3-50.2,3v0.7h2.9v2.2l-8-0.1v0.9h1.9v0.6h-1v0.7h1v1.3h-1.5v1.9l-7.6-0.1v-0.5
			l0.9-0.1v-0.5h-0.9v-0.5h0.9v-0.5h-1.2l0.1-1.5l1.1-0.1v-0.4l-12.6-0.8v-0.8l-1.3-0.1v0.8l-6.2-0.2c-0.8-0.4-1.5,0.2-1.5,0.2
			l-0.3,0.1l-23.8-1.4l-0.1-3.2c0,0-1.8-2.3-3.4-2.9c-1.6-0.6-2.6-0.6-2.6-0.6v-8.3h-1.5v1.3l0.5,0.3l0.1,5l-0.3,0.1l-0.2,1
			l-0.7,0.3l-1,0.3l-0.3,0.6l-0.2,0.4l-1.9,0.1c0,0,0.1-1.3-0.1-1.4c-0.2-0.1-3.1-2.3-3.6-2.6c-0.5-0.3-3.4-2.1-4.3-2.3
			c-0.9-0.2-3.8-0.6-3.8-0.6l-0.2-9.3l-1,0.1l-0.1,9c0,0-4.5,1-5.8,1.6c-1.3,0.6-4.2,2.9-4.2,2.9l-1,0.8l-0.9,0.5l-0.1,1.5l-2.5-0.1
			l-0.8-0.5l-1.8-1.1l-0.1-8.6h-0.7l-0.1,8.6c0,0-5.3,2.4-5.6,2.6c-0.2,0.2-1,1.6-1,1.6l1,3.2l-0.9,0.3l0.1-1.1l-0.8,0.1v0.7h-0.6
			l-0.8-1l-0.7-0.1v1.2h-0.5c-1.2-1.6-2.1-0.2-2.1-0.2h-1c-11.6-13.4-25.5-11.6-25.5-11.6l-0.1-9.1l1.2-0.9v-2.5H699l-0.1-0.7
			l-1.5-0.2l0.1-0.8l0.7-0.4v-0.6l0.4-0.3l0.2-1.6v-2h-0.5l-0.3-0.7l0.8-0.2v-1.6h-0.6l0.3-1.7c3.9-4.9-2.6-5.8-2.6-5.8l0.1-29.5
			c4.7-1.6,0.4-2.9,0.4-2.9l-0.1-0.9l2.2-2.6v-4.9h-1.6l0.1-1l1-0.3v-1.6h-1.1l-1-0.6l0.1-0.9c2.1,0.5,2-1.3,2-1.3
			c0.3-2.8-2.4-2.4-2.4-2.4l-0.2-0.4l-0.1-12.4l1.2-0.2v-0.6l-0.8-0.1l0.2-0.7c0.4-0.2,0.7-1.5,0.7-1.5c1-0.1,0.4-1.4,0.4-1.4
			c1.3-0.2-0.6-1.8-0.6-1.8c0.2-1.3-1.8-1.5-1.8-1.5c-0.8-2.4-2.2,0-2.2,0c-1.4-0.2-1.8,1.4-1.8,1.4c-2.4,1.5,0.4,1.6-0.4,2.4
			s1.2,1.2,1,1.5s0.5,1.7,0.5,1.7h-0.9v0.9h0.9v12.3c-5.1,3.1-0.4,4-0.4,4v0.8h-0.7l-0.3,0.6h-1.1l0.1,1.9h0.7l0.1,1.1h-1.6l0.1,4.7
			c3.1,3.5,1.9,3.4,1.9,3.4c-3.4,2.8,0.7,3.1,0.7,3.1v29.4c-7.1,1.3-2.4,6-2.4,6l0.3,1l-0.7,0.7l0.4,1.3l-0.4,1v1.3l0.1,0.9l0.3,1.2
			l0.3,0.7l0.7,1l-1.6,0.7l-0.9,0.3l0.1,2.4l0.7,1.2v8.6c-11.8,0.7-18,7.1-18,7.1l-4.4-0.9v1.2l-5.2-0.6l-1.8-3.4l-9.3-1.5l-1.2-1.5
			l0.6-1v-2.7h-0.9l0.2-1.2l3.8-0.1l-0.1-1.9h2.2v-7.2l3-5.8l-2.7-5.6v-8.6l-3.8-0.3l-1.2-2.2v-3.2l-1.5-0.1v-1h-10.6h-14.8h-1.9
			h-7.4l-0.7,2.7l-1.5,2.7h-1v0.9H607l0.3,8.6l-2.2,4.1l2.5,6l-0.1,8.6l3.2,0.7l2.5,6.6l-3.1,0.3v2.1l-10.3,1.3v1h-1.9v1.3l-7.2,0.4
			v-1.1l-5.6-4.3v-1.8h-0.7l-0.7-1.6v-1l0.7-0.3v-1.3c-1-2.4-2.6,3-2.6,3v-0.7V446l-1.4-1.6c0-0.7-0.9-0.4-0.9-0.4
			c-0.1-0.6-1.3-2.1-1.3-2.1l0.6-1.3c0.6-1.6,0.9-0.2,0.9-0.2l0.3,1.8l1,0.9c1.6,0.4,0.3-1,0-1.8c-0.3-0.7,0-1.3,0-1.3l-1.6-1.6
			l-0.9-0.6c-0.9-0.6-4.1-0.6-4.7-0.6c-0.6,0-1.9-1.9-1.9-1.9v-1.6c0-0.6-1.3-1.5-1.3-1.5c-1.2-0.9-1.9,0.1-1.9,0.7
			c0,0.6-0.7,1.3-0.7,1.3c-0.4,1.5,0.7,1.2,0.7,1.2c1.6-2.5,1.9-0.7,1.9-0.7l-1,0.9c0,0,0.2,1.6-0.4,1.9c-0.6,0.3,0,1.3,0,1.3
			l-2.2,1.3c0,0-0.3,1.9-0.3,3.1s0.7,0.9,0.7,0.9s0-1.9,0.1-2.7c0.1-0.7,1.9-1.5,2.4-1c0.4,0.4,0.7,2.7,0.7,3.2
			c0,0.6-2.4,2.4-2.4,2.4H566c0,0,0.1-0.9,0-1.8c-0.1-0.9-1-2.1-1.8-3c-0.7-0.9-0.9-1-0.9-1l-0.1,1.5c0,0-1.2,1.3-1.2,1.9
			c0,0.6,2.2-0.4,2.2-0.4v0.6c-1.8,1,0,2.8,0,2.8l-0.7,2.1l-0.6-1.3c-1.6,0-3.3,0.6-3.3,0.6h-1.2l-0.7-0.4v-1.3l-0.7-1.6l-1.3-1.5
			l-0.9,0.7l-1.2-0.1l0.1,1.8l1.6,0.3c0,0,0.1,2.2,0,3c-0.1,0.7-1.2,0.7-1.2,0.7l-0.6-0.7c-0.7-1-1.2-1.2-1.2-1.2
			c-4-0.1-2.7,2.1-2.7,2.1l0.1,1.5c2.2,1.2,1-1.6,1.6-1.6s0.9,1.3,0.7,1.9c-0.1,0.6-1.5,1-1.5,1l-1.2,2.2c-0.9,3.2,1,0.7,1,0.7
			c0.1-0.6,0.3-1,0.6-1.4c0.8-1,1.9-1.4,1.9-1.4s0.4,2.8-0.1,2.5c-0.6-0.3-0.7,0.6-0.7,0.6l-0.3,0.7c-1.5,0.9,0.7,2.2,0.7,2.2l3,0.4
			l-0.1,2.1l1.5,0.3v2.1l-1,0.4v-0.4v-0.7l-6.6-0.1h-0.8v1.5H546c0,0-0.5,0.1-0.6-0.4s-1.3-0.2-1.3-0.2v1.2l-2.8,0.2l0.4,0.3
			l0.6,0.4v0.6l-0.4,0.9l-0.5,0.5l0.5,0.8v0.7l-0.5-0.3l-0.7-0.2v-1l-0.5-0.1l-0.9,0.4v0.4v0.8v1.7l-2.3-0.1v2.2h-45.6l-61.5-0.5
			l-15.3-0.4v-3.1h-0.4v0.8l-0.4,0.5v1.6l-0.7,0.7h-5.3v-1c0-0.8-2.5,1-2.5,1h-0.6l-0.8-1v-2h-0.8l-1,0.9l1,0.4v0.7l-0.6,1h-1.1
			l-1-1.3l0.1-1.6c-0.4-0.9-1.1,1.2-1.1,1.2h-1.2l-0.3-1h-0.8l0.1-3h0.8h0.6l0.6,0.8l0.9-0.1l0.3-2.4l0.7-0.2V463
			c-0.4,0-0.9-1.5-0.9-1.5c-0.4-0.9-2.3,0.9-2.3,0.9c-0.9,0.2-0.4,2.4-0.4,2.4l0.8,0.5l-0.5,0.7l-1.5-0.6v-1.1h-0.4l-0.4,1.1
			c0,0-0.6,0.7-0.8,0.7s-0.9,0.6-0.9-0.1s0.7-0.9,0.7-0.9c0.4-0.6,0.1-2.1-0.4-2.3c-0.5-0.2-1.5-1.2-1.5-1.2c-0.8-0.2-2,1.5-2,1.5
			v1.5c-0.5,0-1.9,1.2-1.9,1.2c-0.9,0.2,0.6,2.5,0.6,2.5v3.1l-0.7,0.5l-0.5-0.2v-1l-0.6-0.4v-2.2l0.6-0.2v-0.6v-0.6v-0.5
			c-1.9-1.8-2.5,0.9-2.5,0.9H385l-0.8-0.4c-1.8-0.3-1.9,1-1.9,1.5c0.1,0,0,0.2,0,0.2s0-0.1,0-0.2c-0.1,0-0.2,0-0.5,0.2
			c-0.8,0.4-0.6,1.5-0.6,1.5v1.1c0,0.4-1.2,1.6-1.2,1.6h-2.5c0,0,0-0.8,0.3-1s1.6-0.7,1.9-1s0.7-0.7,0-1.1c-0.7-0.4-1.2,0.9-1.4,0.6
			s-1.9,0-1.9,0v1.8l-0.7-0.1v-1.7l-0.7,0.8v1.2l-0.5,0.5H337v5.4h1285v-5.6L1573.7,472.6z M398.2,464.6h-0.7l0.4-0.7l0.3-0.3
			c0,0,1.3-0.9,1.7-0.5l0.5,0.5v1.1l-0.7,0.4l-0.1,1.5h-0.4l-0.3-0.8v-0.5l-0.6-0.1L398.2,464.6z M387,466.5c0.2,0,0.4,0.2,0.4,0.3
			c0,0.2-0.2,0.3-0.4,0.3s-0.4-0.1-0.4-0.3C386.6,466.6,386.8,466.5,387,466.5z M386.5,468.1v1.9h-1.3
			C384.2,468,386.5,468.1,386.5,468.1z M384.1,468.7c0,0,0.3-0.5,0.5,0v2h-0.5V468.7z M382.9,469.5c0.2,0,0.4,0.2,0.4,0.4
			c0,0.2-0.2,0.4-0.4,0.4s-0.4-0.2-0.4-0.4C382.5,469.7,382.7,469.5,382.9,469.5z M384.1,472.7l-1.7-1V471h1.7l0.2,0.4h0.2l0.3-0.6
			h1.9v0.5l0.8,0.8l0.4,0.6L384.1,472.7L384.1,472.7z M391,467.7l-0.1,0.6h-0.3h-0.3l-0.1-0.9v-0.5c0,0-0.7-0.4-0.3-1.1l0.7-0.3
			l0.7-0.7v-1.2l0.8-0.5h0.7l0.7,0.5l0.3,0.6v0.8h-0.7h-0.3h-0.4l-0.3,0.5l-0.4,0.3v0.4v0.4l-0.6,0.3l-0.2,0.3L391,467.7z
			 M393.2,466.8c0,0.1-0.1,0.2-0.3,0.2s-0.3-0.1-0.3-0.2c0-0.1,0.1-0.2,0.3-0.2C393,466.5,393.2,466.6,393.2,466.8z M395,471.7h-3.7
			v-3.6c0,0-0.1-1.4,0.9-0.9l0.3,0.4h0.7l0.4-0.5c0,0,1.2-0.3,1.4,0.5L395,471.7L395,471.7z M555.4,451.9v0.8l-0.6,0.4l-0.6,0.3
			v-0.7C554,451.7,555.4,451.9,555.4,451.9z M556.2,454.8l-0.5,0.3l-0.3,0.3h-1.1c-0.3,0,0-0.7,0-0.7l1.2-1.5c0.5-1.1,1.1,0,1.1,0
			L556.2,454.8z M565.9,451.9v1.8l-0.5,0.8h-2.2l-0.4-1l-1.3-0.3l-0.6,0.5l-0.5,0.8v0.6l-0.6,0.6H557c-0.6-0.2,0-1.1,0-1.1
			c1.3-0.5,1.4,0.8,1.4,0.8v-0.2h0.6c0,0,0-0.5-0.1-1c0-0.2,0-0.2,0-0.2c-0.1,0-0.1,0.1-0.5-0.3c0,0,0,0.1-0.2-0.1
			c-0.2-0.1-0.2-0.1-0.2-0.1s0,0.1-0.4-0.1c0,0,0.1,0,0-0.3c-0.1-0.2-0.1-0.2-0.1-0.2s0.1,0,0.2-0.4c0,0,0,0.1,0.1-0.1
			c0.1-0.4,0.2,0.1,0.2,0.1s0.6,0.2,0.9,0.1c0.1,0,0.2-0.1,0.2-0.1c0.2,0,0.3-0.1,0.3-0.1s0-0.3,0.5-0.9c0.1,0,0,0.2,0.2,0.3
			c0.3,0.1,0.4,0,0.4,0s0.3,0.4,0.3,0c0-0.3,0-0.2,0.1-1.1v-0.2c0,0,0,0,0-0.1c0-0.3,0.6,0,0.6,0v0.5c0,0.3,0.1,0.3,0.3,0.6
			c0.1,0.1,0.1,0.1,0.2,0.3c0.2,0.3,0.7,0.3,0.7,0.3l0.3,0.1c0.3,0.1,0.2,0.3,0,0.5s0.7,0.3,0.7,0c0-0.2-0.1-0.8-0.1-1.3v-1.1
			c0.7-0.4,0.8,0.4,0.8,0.7v0.9c0,0.4-0.1,0.6-0.1,1.2c0,0.6,0,0.4,0.3,0.6c0.4,0.2,0.7-0.2,0.7-0.3s0.1-0.6,0.1-0.9v-1.1
			c0-0.7-0.3-0.7-0.3-1.1c0-0.4,0-0.4,0.1-0.6s0.2,0.3,0.2,0.3v0.4c0,0.2,0,0.2,0.2,0.1c0.2,0,0.4-0.3,0.4-0.3V450
			c0-0.2,0.3-0.6,0.3-0.6h0.3c0.3-0.1,0.3-0.1,0.8,0c0.5,0.1,0.3-0.1,1.1,0c0.8,0.1,0.6,0.1,0.7,0.4c0.1,0.3,0.1,0.3,0,0.7
			s-0.9,0.5-0.9,0.5h-1.7L565.9,451.9z M568,454.8c0,0-1.7-0.1,0-1.5c0,0,1.7-0.2,1.7,0.7C569.7,454,570.1,455,568,454.8z
			 M572.3,452.7c-0.4,0.8-0.2,1-0.7,1s-0.8,0.1-0.8-0.3v-1.2v-1.5c0,0,0.9-0.2,1.1,0.5C572.2,451.9,572.7,452,572.3,452.7z
			 M572.9,454.4L572.9,454.4L572.9,454.4c-0.1,0-0.5,0-0.4-0.3c0,0,0.2-1,0.9-0.4C573.4,453.7,573.6,454.4,572.9,454.4z
			 M573.6,444.2c-0.3,0.1-0.2,0-0.2,0s0,0-0.2,0.2c-0.4,0.3-0.9,0.4-1,0.4c0,0.2,0,0,0,0l0,0l0,0l0,0c0-0.1,0-0.2,0-0.5
			c-0.1-1,0.1-2.6,0-3c-0.2-0.4-0.2-1.2-0.2-1.2s1-0.4,1,0c0,0.4,0.1,0.5,0.5,0.4c0.4-0.1,0.1,0.1,0.8,0c0.7-0.1,0.6,0.1,1.1,0
			c0.5-0.1,1.2-0.4,1.2,0.4s0.6,1.3-0.4,1.7l-0.5,0.2l-0.4,0.2c-0.8,0.3-0.3,0.3-0.9,0.6C573.7,443.9,574.1,444.1,573.6,444.2z
			 M578.6,455.5c-0.5-0.1-0.6-0.1-0.8-0.3l-0.2-0.2l-0.7-0.1h-2.6c0,0,0.5-1.2,0.7-1.4c0.2-0.3,0.2-0.8,0.6-0.8c0.4,0,0.5-0.5,1,0.1
			c0.5,0.5,0.5,0.8,0.9,0.9c0.3,0.1,0.4,0.1,0.6,0.4c0.2,0.3,0.5,0.5,0.5,0.8C578.6,455.1,579.1,455.6,578.6,455.5z M580.1,446
			c0.1,0.3,0.1,0.3-0.6,0.3c-0.7-0.1-0.5,0.3-1,0c-0.5-0.2-0.1-0.2-0.7-0.2c-0.6-0.1-0.6,0-0.9-0.1c-0.1,0-0.2,0-0.7-0.1
			c-0.8,0-1,0.1-1,0.1c-0.1-0.5-0.4-0.5,0-0.7c0.3-0.3,0.5-0.2,0.7-0.4c0.2-0.2,0.6-0.2,0.7-0.4c0.1-0.2,0.3,0,0.4-0.5l-0.1-0.7
			c0,0,0.2-2.1,2.1,0c0,0,0.1,0.7,0.5,0.9c0.5,0.2,0.4,0.1,0.6,0.7C580.3,445.4,580,445.7,580.1,446z M648.6,415.1l3.6,0.9v0.3h-6.8
			l-2.1-2.3v-0.5h4.4L648.6,415.1z M618.4,435.7l-0.1,1.7h-3.1l-0.4-5.4l-3.4-3.7l3.5-4.5v-5.4l0.7,0.6l0.3,0.5l2.4,0.6v6.4
			c0,0-0.1,6.1,0.9,6.9C619.2,433.4,618.9,435.3,618.4,435.7z M620.3,413.9c-0.3,0.5-0.8,0.9-1,1.1c-0.2,0.1,0.1,0.2-0.4,0
			s-0.5-0.3-0.9-0.7l-0.4-0.4c0,0-0.9-0.7,1.3-0.3C618.9,413.6,620.6,413.4,620.3,413.9z M623.2,417.9l-0.6,0.5l-0.5-1.6h-0.7
			c-1.6,0.3,1.8-2.9,1.8-2.9l13.3-0.3c0.8,0,0,0.7,0,0.7l-0.4,0.9l-1-0.3C626,413.9,623.2,417.9,623.2,417.9z M639,445l-2.9-2.5
			l-5.4,0.5h-0.1v-0.5l4.4-0.8c1.4,0,4.4-1.6,4.4-1.6L639,445z M639.2,410.8h-14c0,0-1.3-0.5-1.7-0.4c-0.4,0.1-2.6,0-3.5,0
			c-0.8,0-0.3-0.9-0.3-0.9l4.2-0.4l12.5-0.2l1.7,0.2l0.5,0.2h0.9h1.2h2.7c0,0,0.5,0.3,0.8,0.4c0.3,0,2.4,0.8-0.4,0.7
			S639.2,410.8,639.2,410.8z M646.1,437.4c-0.3,0-2.8-0.4-2.8-0.4s4-6.8,2-12.3c0,0-1-3.5-2-4.6h5.6v5.6l3.3,4.4l-3.6,4.6l0.2,4.1
			h-0.5l-1.1,1.3C647.2,440.1,646.5,437.4,646.1,437.4z M918.7,465.7h-1.2v-1l0.6-0.4l-0.6-0.6h1.2V465.7z M1083.6,472.7h-1.1V470
			c0,0,0.5-1,1.1-0.5V472.7z M1086.7,470.5l-1.5,1.5v-2.1c0,0,0.8-1.6,1.5-0.6V470.5z M1115.1,458c-17-6.5-13.4-22.5-13.4-22.5
			c1.3-3.5,2.8-6.3,4.6-8.3V427h0.2c0.1-0.2,0.3-0.3,0.4-0.5c8.1-8.7,19.6-4.8,19.6-4.8c11.4,3.8,12.7,14.6,12.9,17.5l0,0l0,0
			c0,0.4,0,0.7,0,0.7C1136.7,463.2,1115.1,458,1115.1,458z M1271,446.9l0.1-3.2h0.9l0.1,3.4L1271,446.9z M1275.3,420.5v-1.6h-0.1
			l0.5-0.6h1v0.6l0.5,0.6l0.7,1h-1.3H1275.3z M1275.9,446.8l-0.9,0.3v-3.9l1-0.2L1275.9,446.8z M1279.9,447.8l-1.2,0.1l0.3-4.7
			l1-0.1L1279.9,447.8z M1284.2,443.3c0,0.7-0.3,4-0.3,4l-0.7,1.1l-0.4-0.7l-0.2-3.6v-1.2l0.7-2.4l0.6-0.9c0,0,0.4,1.1,0.4,1.4
			C1284.3,441.3,1284.2,442.6,1284.2,443.3z M1377.8,472.5h-2.5l0.9-15.9l2.4,0.9L1377.8,472.5z M1383.8,472.5h-3.8l0.8-14.5
			l3.4,0.4L1383.8,472.5z M1389.7,472.5h-4.1l0.6-14.1h3.5V472.5z M1393.8,472.5h-2.6v-14.1h2.6V472.5z M1395.3,472.4v-14l5-1
			l0.7,15H1395.3z M1403.4,472.5l-1-15l2-0.9l1.2,15.9H1403.4z M1528.9,465.2c0,0-4.4-1.8-5.3-1.6c-0.9,0.2-2.2-0.1-2.5-0.1
			s-0.7-0.7-0.7-0.7v-0.4l-0.8-0.1v-0.7l-0.5-1.2h0.6h0.8c0,0,4.6,0.3,5.1,0.8s3.3,2.5,3.3,2.5V465.2z"/>
	</g>
	<path class="st2" d="M811.4,472.5h346.7c5.6-3.4,6.4-6.4,6.4-6.4c-15.4,7.8-50.8-2.8-50.8-2.8c-41.2-14.4-103.4-18.5-103.4-18.5
		c-3.3-0.3-12.6-4-12.6-4c-1-9.2-12.4-12.5-12.8-12.6l0,0l0,0c-0.5,0.1-11.9,3.5-12.8,12.6c0,0-9.4,3.8-12.6,4
		c0,0-62.2,4-103.4,18.5c0,0-35.4,10.6-50.8,2.8C805,466.1,805.8,469.1,811.4,472.5"/>
	<path class="st3" d="M855.6,472c0.2-0.1,0.4-0.1,0.6-0.2c0,0,54.6-13.4,101.1-14.1c0,0,9.3-12.5,21.1-2.5c0,0,10.4,7.9,4.7,2.3
		c-2.3-2.3-7.4-9.5-7.4-9.5c-15.2-7.8-18.4,3.6-18.4,3.6c-46.5,0.7-101.1,14.1-101.1,14.1c-9.8,2.9-18.2,4.9-25.4,6.3H855.6
		L855.6,472z"/>
	<path class="st4" d="M790.3,478C790.2,478,790.2,477.9,790.3,478L790.3,478L790.3,478z"/>
	<path class="st4" d="M1179.4,478L1179.4,478C1179.4,477.9,1179.4,478,1179.4,478L1179.4,478z"/>
	<path class="st3" d="M991.2,455.2c11.8-10,21.1,2.5,21.1,2.5c46.5,0.7,101.1,14.1,101.1,14.1c0.2,0.1,0.4,0.1,0.6,0.2h24.8
		c-7.2-1.4-15.6-3.4-25.4-6.3c0,0-54.6-13.4-101.1-14.1c0,0-3.2-11.4-18.4-3.6c0,0-5.1,7.2-7.4,9.5
		C980.8,463,991.2,455.2,991.2,455.2"/>
	<path class="st3" d="M517.8,459.6c0-0.9,0.3-3.2,0.3-3.3c0-0.2-0.9-0.1-1.4-0.3c-0.5-0.2-0.7-0.1-0.9,0.1c-0.1,0.2-0.3,1.3-0.3,1.3
		l-1.1,0.2l-0.8,2.9c0,0-1.6-1-1.6-1.1l-0.1-0.5l-0.3,0.1l0.3-2c0,0,0.1-0.4,0.9,0c0.8,0.4,0.9,0.1,1,0.1c0.2,0,0.4-1.6,0.4-1.6
		s0.1-0.2-0.3-0.1c-0.4,0.1-0.9,0.2-1.3-0.2c-0.4-0.4-0.6,0.4-0.7,1.2c-0.1,0.8-0.7,2.6-0.7,2.6s-1.9-0.5-2.1-0.6
		c-0.2-0.1-1.2,0.2-1.4,0.8c-0.3,0.5,0.3-3.4,0.3-3.4s-1.8-0.1-2.2-0.1s-2.6,0.8-2.6,0.8l-0.2,0.4c0,0-0.8-0.2-0.9-0.3s-0.7,0-1.1,0
		s0-1.1,0-1.1s1.1,0.1,1.5,0.1s0.3-1.6,0.3-1.6s0,0-0.6-0.1c-0.6-0.1-1-0.4-1.1-0.1s-0.5,2.6-0.5,2.6s-1-0.2-1.1-0.3
		c0,0-1.3,0-1.7-0.2c0,0-1.8,0-2.3-0.3c0,0-0.4-0.1-0.9,0c0,0-0.7-0.3-1-0.3l0.1-0.7c0,0,0.8,0.1,1,0.2c0.2,0,0,0.1,0,0.1
		s0.3,0,0.3-0.4c0-0.4,0.1-1.4,0.1-1.4s0-0.1-0.3-0.1s-1.2-0.4-1.3,0c-0.1,0.4-0.2,2.2-0.2,2.2H493c0,0-1.2-0.5-1.7-0.3
		c0,0-0.6-0.2-1.2-0.1c0,0-0.6-0.6-1.9-0.4c0,0-1-0.2-1.3-0.2l-0.1-1.2h-3.1l-0.3,0.2c0,0-2.1-0.7-3.6-0.7h-1.5c0,0-1.3-0.5-2.2-0.6
		v-0.2c0,0-1.6-0.2-2.5,0c0,0-1.5-0.9-4.3-0.8c0,0-0.8-0.8-2.7-0.9v-0.3c0,0,0.4-0.1,0.4-0.2c0-0.1,0-1.6,0-1.6s-0.7-0.1-0.9-0.3
		v1.8l0.3,0.3v0.3c0,0-1.3-0.1-1.9,0.2c0,0-1.2-1.3-4.1-1.3h-2.8c0,0-0.3-0.8-2.8-0.9c0,0-1.4,0-2.8,0.7c0,0-0.3-0.3-0.5-0.4
		l0.2-0.1v-1.7c0,0-0.6,0-0.8-0.2v1.6c0,0-2-1.3-5.3,0.2c0,0-2.9-1.5-5.2-0.3v-1.5c0,0-0.6,0.3-0.8,0.2v1.6h0.3c0,0-0.3,0.1-0.7,0.4
		c0,0-3.4-1.7-5.7,0.3h-2.7c0,0-1.9-0.3-4.2,1.2c0,0-1.3-0.2-1.9-0.1v-0.3l0.3-0.3v-1.7c0,0-0.5,0.3-0.9,0.3v1.7l0.4,0.1v0.3
		c0,0-1.2-0.2-2.8,0.9c0,0-2.2-0.4-4.2,0.9c0,0-1.9-0.1-2.5,0l-0.1-0.5c0,0,0.2-0.1,0.2-0.4v-1.6c0,0-0.7,0.5-1.1,0.3v1.6
		c0,0,0.1,0.2,0.4,0.1l0.1-0.1h0.2v0.7c0,0-1.3,0.2-2.1,0.6c0,0-3.2-0.2-5.2,0.8l-0.3-0.2h-3.2v1.1c0,0-0.5-0.1-1.2,0.2
		c0,0-1-0.1-2.1,0.4c0,0-0.8-0.1-1.3,0.2c0,0-0.9-0.3-1.7,0.3c0,0-0.2,0-0.4,0v-0.8l-0.2-1.7c0,0-0.9,0.4-1.4,0.2l-0.1,0.2l0.2,1.5
		c0,0,0,0.2,0.4,0.1l0.9-0.3v0.8c0,0-0.9,0.2-1.1,0.2c0,0-1.2-0.5-2.2-2.2c-0.7,0.3-1.4,0.5-2.1,0.6c-0.4,0-0.9,0-1.4,0
		c-1.1,0.2-2.3,0.4-3.5,0.4c-0.8,0.3-1.8,0.4-2.8,0.1c-0.2,0-0.4,0.1-0.6,0.1c-0.1,0.4-0.3,0.7-0.4,1.1h-0.3v0.5c0,0-0.4,1.2-2,2.5
		c0,0-1,0.3-1.2,0.3l-0.8-3.5c0,0-0.1-0.3-0.5-0.2c-0.5,0.2-1,0.3-1.4,0.2c-0.3,0-0.2-0.1-0.1,0.3c0.1,0.4,0.3,1.4,0.3,1.4
		s0.6-0.3,0.9-0.1c0.3,0.2,0.9-0.5,1-0.1c0.1,0.4,0.5,2,0.5,2h-0.4v0.2c0,0-1.3,1.1-2,1.3c-0.7,0.3-0.6,0.1-0.6,0.1l-0.4-1l-0.9-3.7
		c0,0-0.2-0.3-0.7-0.2s-1.5,0-1.6,0.2c-0.1,0.1,0.1,0.2,0.2,0.7s0.2,1,0.2,1s0.5-0.3,1-0.1c0.5,0.2,0.9-0.7,1.2,0s0.3,1.9,0.3,1.9
		h-0.2l0.2,1.2c0,0-0.7,0.6-0.7,0.8c0,0.2,0,0.4,0,0.4l1.3,1.3l0.2,0.7l-1,0.1c0,0-0.5,0.2-0.6,0.2c-0.1,0.1-0.2-0.1-0.2-0.1l-0.6-3
		l-1.3-1.2l-0.8-3.7c0,0-0.4-0.4-0.6-0.3c-0.3,0.1-0.9,0.4-1.4,0.2c-0.5-0.2-0.3,0.1-0.3,0.4c0,0.2,0.4,1.3,0.4,1.3s0.4-0.3,1-0.1
		c0.6,0.3,0.7-0.7,1.1,0l0.4,1.8h-0.1l-0.2,0.2l3.4,14.4h144.1l0.2-0.4c0,0-2.2-5.1-2.4-10.9c0,0,0.4-1.6,0.6-2.7
		C517.9,460,517.8,460.2,517.8,459.6z M375.5,466.2l0.9,0.1l0.1,0.4h-1.1l-0.5-1.9v-0.1l0.2,0.5c0,0,1.5-0.2,1.6-0.2
		c0.2,0,0.2,0.6,0.2,0.6h-1.5L375.5,466.2z M377.8,465.6l-0.2-0.7l2.5-0.3l0.2,1H377.8z M381,464.5l2.2-0.3c0.1,0.5-0.1,1.4-0.1,1.4
		h-1.8L381,464.5z M383.4,473.5h-1.6c3-8.2,1.4-16.9,1.4-16.9h1.5C386.2,466.7,383.4,473.5,383.4,473.5z M388.4,460.6l1.6-0.2
		l0.3,1.7l-1.6,0.2L388.4,460.6z M389.2,464.8l-0.2-1.3l1.5-0.2l0.3,1.5H389.2z M390.8,460.3l6.4-0.6l0.2,1.7l-3,0.4l-3.3,0.3
		L390.8,460.3z M391.4,463.9l-0.1-0.7l6-0.8l0.3,1.5H391.4z M397.9,459.6l6.2-0.8v1.8l-6,0.8L397.9,459.6z M398.3,462.3l5.9-0.8v1.5
		h-5.8L398.3,462.3z M406.2,473.5H404c0,0,1-9,0.4-19.5h2.2C406.6,454,407.4,459.4,406.2,473.5z M408.9,458l5.8-1.1l0.1,1.9l-5.6,1
		L408.9,458z M414.9,462.1h-5.2l-0.1-1.3l5.4-0.9L414.9,462.1z M424.2,461.4h-8.7v-0.1l-0.1-1.3l8.8-1.5L424.2,461.4L424.2,461.4z
		 M424.3,457l-8.9,1.7l-0.1-1.8c4.3-0.8,9-1.7,9-1.7V457z M430.5,460.3h-5.7v-2l5.7-0.9V460.3z M430.4,456.1l-5.6,0.8l-0.1-1.8
		l5.8-0.8L430.4,456.1z M433.3,473.6H431l0.1-23.6h2.2L433.3,473.6L433.3,473.6z M433.8,453.9l5.7-0.5v1.8c-1.2,0.1-5.7,0.4-5.7,0.4
		V453.9z M439.5,459.4h-5.6l0.1-2.2l5.7-0.6L439.5,459.4z M451.4,453.5l5.7,0.5v1.7c0,0-4.4-0.3-5.7-0.4V453.5z M450.8,464.2H440
		v-6.7h10.9L450.8,464.2z M450.9,455.2h-10.8v-1.7H440c5.6-0.3,10.9-0.1,10.9-0.1V455.2z M451.5,459.5l-0.1-2.8l5.7,0.6l0.1,2.2
		L451.5,459.5L451.5,459.5z M459.8,473.6h-2.3l0.1-23.6h2.2L459.8,473.6L459.8,473.6z M466.2,455.2l-0.1,1.8l-5.6-0.8l-0.1-1.8
		L466.2,455.2z M466.2,460.4h-5.7v-2.9l5.8,0.9L466.2,460.4z M475.4,461.4h-8.8v-2.9l8.8,1.6V461.4z M475.5,458.8l-8.9-1.7v-1.8
		c0,0,4.7,0.8,9,1.7L475.5,458.8z M481.4,462.2h-5.2v-2.1l5.4,0.9L481.4,462.2z M481.7,459.9l-5.6-1l0.1-1.8l5.8,1.1L481.7,459.9z
		 M484.8,473.6c0,0-1.3-13.2-0.5-19.6h2.1c0,0-0.7,8.7,0.5,19.5L484.8,473.6z M492.6,463.1h-5.8v-1.4l5.9,0.8L492.6,463.1z
		 M492.8,461.4l-6-0.8v-1.8l6.2,0.8L492.8,461.4z M499.6,464h-6.2l0.3-1.5l6,0.8L499.6,464z M499.9,462.1l-3.3-0.3l-3-0.4l0.2-1.7
		l6.4,0.6L499.9,462.1z M501.8,464.9h-1.5l0.3-1.5l1.5,0.2L501.8,464.9z M502.2,462.4l-1.6-0.2l0.3-1.7l1.6,0.2L502.2,462.4z
		 M506,466.7c0,0-0.4-4.5,0-10h1.7c0-0.1-1,6.4-0.2,10.2L506,466.7z M509.7,465.7h-1.8c0,0-0.2-0.9-0.1-1.4l2.2,0.3L509.7,465.7z
		 M513.2,465.7h-2.5l0.2-1l2.5,0.3L513.2,465.7z M516,464.9l-0.4,1.9h-1.1l0.1-0.4l0.9-0.1l0.1-0.6h-1.5c0,0,0-0.6,0.1-0.6
		s1.6,0.2,1.6,0.2L516,464.9L516,464.9z M476.3,452v-0.3c0,0,0.4-0.1,0.4-0.2s0-0.1,0-1.6c0,0-0.7-0.1-0.9-0.3v1.8l0.3,0.3v0.3"/>
	<path class="st3" d="M398.6,443.3c-0.5-1.5-1-3-1.5-4.6c-0.2-0.6-0.3-1.2-0.4-1.7c-1.3,0.6-2.7,1.4-4.1,2.1
		c-0.1-0.1-0.3-0.2-0.4-0.3l1.4-4.9c-0.1-0.1-0.3-0.2-0.4-0.3c-1,0.7-2.8-0.6-3.4,1.3c1.9,2,1.8,4.8,0.1,6.8
		c-1.6,1.8-3.3,3.5-4.1,5.8c-0.7,2.2-1.8,4.3-2.4,6.5c-0.1,0.3-0.2,0.7-0.3,1c0.3,0.2,0.6,0.4,0.9,0.6c0.7-0.5,1.7-0.9,2.9-0.9
		c0.9,0,1.7,0.2,2.4,0.5c0.7-0.4,1.6-0.7,2.6-0.7s1.9,0.3,2.6,0.7c0.2-0.2,0.5-0.4,0.7-0.6c-0.5-0.3-0.9-0.7-1.1-1.3
		c-0.3-0.7-0.3-1.6-0.4-2.3s0-1.5-1-1.9c-0.3-0.1-0.4-0.8-0.5-1.2c0-0.3,0.3-0.6,0.2-0.8c-0.5-1.7,0.3-3.2,0.8-4.7
		c0.1-0.5,0.7-0.8,0.9-1c0.9,0.7,1.7,1.3,2.4,1.8c0.3,0.2,0.6,0.5,0.9,0.7c0.3,0.3,0.6,0.5,0.9,0.8
		C398.4,444.1,398.7,443.6,398.6,443.3z"/>
</g>
</svg>
